<svg xmlns:dc="http://purl.org/dc/elements/1.1/" xmlns:cc="http://creativecommons.org/ns#" xmlns:rdf="http://www.w3.org/1999/02/22-rdf-syntax-ns#" xmlns:svg="http://www.w3.org/2000/svg" xmlns="http://www.w3.org/2000/svg" xmlns:xlink="http://www.w3.org/1999/xlink" xmlns:sodipodi="http://sodipodi.sourceforge.net/DTD/sodipodi-0.dtd" xmlns:inkscape="http://www.inkscape.org/namespaces/inkscape" width="211.66666662693024" height="205.33333551883698" version="1.1" inkscape:version="1.0.1 (3bc2e813f5, 2020-09-07)" sodipodi:docname="tm_logo.svg" style=""><rect id="backgroundrect" width="100%" height="100%" x="0" y="0" fill="none" stroke="none" style="" class="selected"/>
  <defs id="defs1142">
    <rect x="469.2782897949219" y="93.2593002319336" width="214.23876953125" height="138.7984161376953" id="rect812"/>
    <rect x="279.5182800292969" y="8.249588966369629" width="227.49008178710938" height="37.57250213623047" id="rect806"/>
  </defs>
  <sodipodi:namedview id="base" pagecolor="#ffffff" bordercolor="#666666" borderopacity="1.0" inkscape:pageopacity="0.0" inkscape:pageshadow="2" inkscape:zoom="0.49" inkscape:cx="274.66381" inkscape:cy="623.25242" inkscape:document-units="mm" inkscape:current-layer="layer1" inkscape:document-rotation="0" showgrid="false" inkscape:snap-object-midpoints="true" inkscape:window-width="1568" inkscape:window-height="908" inkscape:window-x="186" inkscape:window-y="61" inkscape:window-maximized="0"/>
  <metadata id="metadata1145">
    <rdf:RDF>
      <cc:Work rdf:about="">
        <dc:format>image/svg+xml</dc:format>
        <dc:type rdf:resource="http://purl.org/dc/dcmitype/StillImage"/>
        <dc:title/>
      </cc:Work>
    </rdf:RDF>
  </metadata>
  
  
<g class="currentLayer" style=""><title>Layer 1</title><g inkscape:groupmode="layer" id="layer2" inkscape:label="Layer 2">
    <ellipse style="fill:#000000;stroke-width:1.5354" id="path1164" cx="105.81537628173828" cy="102.21172332763672" rx="94.95193481445312" ry="90.7595443725586"/>
    <ellipse style="fill:none;fill-opacity:1;stroke:none;stroke-width:1.04896;stroke-opacity:1" id="ellipse2234" cx="-121.73140716552734" cy="-90.21852111816406" rx="62.65520095825195" ry="64.1966323852539" transform="matrix(-0.9874666,-0.15782813,0.14410591,-0.98956227,0,0)"/>
  </g><g inkscape:label="Layer 1" inkscape:groupmode="layer" id="layer1" class="">
    <path d="m200.2320098876953,102.17839090347661 c0,50.96164190368836 -42.47806167602539,92.42699287983305 -94.69120788574219,92.42699287983305 c-52.21308135986328,0 -94.69120025634766,-41.46535097614469 -94.69120025634766,-92.42699287983305 c0,-50.963506598774075 42.478118896484375,-92.42494822444132 94.69120025634766,-92.42494822444132 c52.21315002441406,0 94.69120788574219,41.46144162566725 94.69120788574219,92.42494822444132 zm3.377419948577881,0.1915024742441318 c0,-0.06353638300388198 0.004999999888241291,-0.12803635832117166 0.004999999888241291,-0.1915024742441318 c0,-0.06614609162041774 -0.004999999888241291,-0.1280463943389023 -0.004999999888241291,-0.19175340460101253 c3.3182199001312256,-0.7772216394191958 5.692299842834473,-3.929250689101252 5.487420082092285,-7.761612855363296 c-0.029999999329447746,-2.210687679430123 -1.248289942741394,-4.090273762540619 -2.823970079421997,-5.296742491208192 c-1.1068099737167358,-0.8512470070642593 -2.42903995513916,-1.3480974895002191 -3.8230600357055664,-1.4802481813435406 c-0.029999999329447746,-0.16263809454001787 -0.06109999865293503,-0.32200399859562623 -0.08860000222921371,-0.4822451600604438 c1.296910047531128,-0.5403353058478189 2.4100100994110107,-1.4142817209793748 3.2042300701141357,-2.5586935790691427 c0.5573999881744385,-0.8083635071350272 0.996940016746521,-1.764342207330202 1.1827800273895264,-2.7710326209389677 c0.13530999422073364,-0.9914396152553309 0.0843999981880188,-2.0616322056495733 -0.2029699981212616,-3.1190442639920093 c-0.5574100017547607,-2.14368046458344 -1.8925199508666992,-3.859161893323005 -3.567460060119629,-4.834312947103854 c-1.1764999628067017,-0.7199214523687232 -2.646559953689575,-1.0017479665341682 -4.108180046081543,-0.8803161604177774 c-0.04190000146627426,-0.13195694136093294 -0.09109999984502792,-0.25999831021256625 -0.13710999488830566,-0.3921319213818961 c2.9190399646759033,-1.7523846586459229 4.205349922180176,-5.477543728758064 2.8430099487304688,-9.073025245035524 c-0.847029983997345,-2.030705117687262 -2.587470054626465,-3.4656035412243114 -4.429279804229736,-4.15830976642394 c-1.3370200395584106,-0.49270708783713246 -2.764810085296631,-0.5731202685916941 -4.156789779663086,-0.24947917264777075 c-0.06769999861717224,-0.1278085063180292 -0.13531999289989471,-0.25772083715765604 -0.2005700021982193,-0.38348272874219447 c1.0983599424362183,-0.9174252558204756 1.9009599685668945,-2.1090505497395498 2.3107199668884277,-3.4738494085970615 c0.5089200139045715,-1.8657714972258646 0.17125000059604645,-3.9789465361597536 -0.9947900176048279,-5.875644164112259 c-1.2166099548339844,-1.8472205092446643 -2.8768200874328613,-3.1852203589679675 -4.9362101554870605,-3.496523689228013 c-1.4214400053024292,-0.27215454512565884 -2.870419979095459,-0.11337380372233774 -4.198999881744385,0.4246820024231752 c-0.08860000222921371,-0.11956784391423625 -0.17542999982833862,-0.24328512497746857 -0.26583999395370483,-0.3648985964759106 c0.9188100099563599,-1.0616949700402074 1.503890037536621,-2.339910426666961 1.6580599546432495,-3.7232593162700027 c0.2005700021982193,-1.9131939095674397 -0.23889000713825226,-4.141818510296275 -1.8101400136947632,-5.727210893517395 c-2.6549999713897705,-2.8471106009972686 -6.640669822692871,-3.434677649806588 -9.563899993896484,-1.6534285067588996 c-0.08860000222921371,-0.08661223895532544 -0.17723000049591064,-0.17315721714800603 -0.26822999119758606,-0.2597654327221548 c1.8228199481964111,-2.855356229061101 1.2229599952697754,-6.745655084267128 -1.6960899829864502,-9.33918366592252 c-1.622130036354065,-1.5338546950785314 -3.903290033340454,-1.9626750965268798 -5.865499973297119,-1.7647566903754353 c-1.4151500463485718,0.15258668625461524 -2.7268500328063965,0.7215695728840359 -3.8167200088500977,1.6183831516341058 c-0.12213999778032303,-0.0886498197771779 -0.24907000362873077,-0.17111262158350726 -0.3718000054359436,-0.2597664497850545 c0.5490300059318542,-1.2967695556238823 0.7118200063705444,-2.711045293880318 0.43707001209259033,-4.096462769766845 c-0.3233200013637543,-2.014213861559597 -1.691890001296997,-3.6305333327430276 -3.586509943008423,-4.818025103556124 c-1.9432300329208374,-1.1400816828807763 -4.106080055236816,-1.4699448555519723 -6.0154900550842285,-0.9751520110165188 c-1.3982700109481812,0.40200766196499416 -2.6233201026916504,1.1833726660694026 -3.5590100288391113,2.2574809486274034 c-0.13112999498844147,-0.06393787606193335 -0.2616499960422516,-0.13195694136093294 -0.392769992351532,-0.19793541204139942 c0.3292999863624573,-1.356548923233163 0.24727000296115875,-2.7522746307440684 -0.25745999813079834,-4.055222185383968 c-0.7096700072288513,-1.7998031223903581 -2.181879997253418,-3.498586292788559 -4.260250091552734,-4.323238600706986 c-3.6815199851989746,-1.3297537430416355 -7.500329971313477,-0.07421611928757876 -9.29358959197998,2.772891333301743 c-0.13530999422073364,-0.04325091390174052 -0.26822999119758606,-0.0886498197771779 -0.4035399854183197,-0.13195694136093294 c0.12453000247478485,-1.4266468127502776 -0.1628500074148178,-2.8636025750516865 -0.9040200114250183,-4.009872427577477 c-0.9948499798774719,-1.632811205928931 -2.7521800994873047,-2.9378211248204593 -4.9509501457214355,-3.4820897718647075 c-1.081470012664795,-0.2782909642172484 -2.181879997253418,-0.3298349342189226 -3.195770025253296,-0.19583229048974715 c-1.030709981918335,0.17935217718355645 -2.010770082473755,0.6081784865708073 -2.8408501148223877,1.152446894306138 c-1.1701500415802002,0.7751762062734855 -2.0636301040649414,1.8595931392464706 -2.6169800758361816,3.12749402256253 c-0.16704000532627106,-0.026883017781881513 -0.3292999863624573,-0.06183003563756273 -0.4945499897003174,-0.08660822305255245 c-0.13530999422073364,-1.360674010699796 -0.6463199853897095,-2.649192314500283 -1.5186699628829956,-3.7336091876460387 c-1.2335000038146973,-1.5338550540419078 -3.16195011138916,-2.7213540041225315 -5.426219940185547,-2.756400555791913 c-3.926529884338379,-0.1979359056160419 -7.156070232391357,2.119352798640989 -7.9523701667785645,5.35817452620222 c-0.06530000269412994,0 -0.13112999498844147,-0.004125348275961338 -0.19639000296592712,-0.004125348275961338 c-0.06530000269412994,0 -0.1311199963092804,0.004125348275961338 -0.19878000020980835,0.004125348275961338 c-0.7962499856948853,-3.238821966870148 -4.023690223693848,-5.556093052008123 -7.948118209838867,-5.35817452620222 c-2.2663679122924805,0.03506345286168511 -4.194753170013428,1.2225455017500053 -5.4283127784729,2.756400555791913 c-0.8722879886627197,1.0844168731457557 -1.3834819793701172,2.3729352966007013 -1.5165200233459473,3.7336091876460387 c-0.167044997215271,0.024545319272582855 -0.32930099964141846,0.05978342090407196 -0.49634599685668945,0.08660822305255245 C89.39979553222656,6.40736317323649 88.50829315185547,5.32294677870857 87.3338851928711,4.5477706322623135 C86.50596618652344,4.003519933386883 85.5259017944336,3.574681703424176 84.49513244628906,3.395323977265093 C83.48130798339844,3.2613210343997707 82.38084411621094,3.312865303537592 81.301513671875,3.591156207927611 C79.10274505615234,4.135406906803041 77.34332275390625,5.44043453455447 76.3463134765625,7.073245022556648 c-0.7392510175704956,1.1462697328713318 -1.026520013809204,2.5832256148271995 -0.9018650054931641,4.009872427577477 c-0.1353120058774948,0.04325091390174052 -0.26822999119758606,0.0886498197771779 -0.4011479914188385,0.13195694136093294 c-1.795346975326538,-2.8471106009972686 -5.614218235015869,-4.102645076343379 -9.295740127563477,-2.772891333301743 c-2.078366994857788,0.8246520686095096 -3.5484259128570557,2.5234352390077106 -4.258158206939697,4.323238600706986 c-0.5071240067481995,1.3029475546398999 -0.589148998260498,2.6986732621508054 -0.2574540078639984,4.055227450180155 c-0.13291700184345245,0.06597545688378581 -0.26164400577545166,0.13400355609442371 -0.3951599895954132,0.19793641414749175 c-0.9356340169906616,-1.0741141456264813 -2.158596992492676,-1.8554731969215652 -3.5589630603790283,-2.2574869313503427 c-1.9094059467315674,-0.49481192942162977 -4.072253227233887,-0.16491757180711275 -6.015487194061279,0.9751520110165188 c-1.8946160078048706,1.187492010122014 -3.2633090019226074,2.803811481305445 -3.58434796333313,4.818025103556124 c-0.2766129970550537,1.3854173562320682 -0.11375799775123596,2.7996932141429625 0.4370720088481903,4.096462769766845 c-0.12453600019216537,0.0886498197771779 -0.2532620131969452,0.17111262158350726 -0.37360700964927673,0.2597664497850545 c-1.0898669958114624,-0.89681357875007 -2.4015610218048096,-1.4658195287764215 -3.8167169094085693,-1.6183831516341058 c-1.9622130393981934,-0.19793641414749175 -4.243369102478027,0.23089604248757922 -5.865505218505859,1.7647566903754353 c-2.9190409183502197,2.5935290602732266 -3.518907070159912,6.4838276761703355 -1.6960779428482056,9.337120823053056 c-0.09099999815225601,0.0886498197771779 -0.1796180009841919,0.17526205873250333 -0.26822999119758606,0.26181104534955324 c-2.923232078552246,-1.7812480661575592 -6.908908843994141,-1.19368101734824 -9.563911437988281,1.65342946399457 c-1.5714830160140991,1.5853923832211194 -2.0129261016845703,3.814015787405367 -1.810196042060852,5.727210893517395 c0.15626700222492218,1.3833486502941241 0.7393100261688232,2.6615643462297953 1.6581189632415771,3.723300477403825 c-0.08861999958753586,0.12161245443554236 -0.17542800307273865,0.24532973549877468 -0.264039009809494,0.3648985964759106 c-1.3306750059127808,-0.5381140404749232 -2.779658079147339,-0.6968315519751798 -4.2011590003967285,-0.4246820024231752 c-2.0614829063415527,0.31130922324214083 -3.71744704246521,1.6493021030932198 -4.936159133911133,3.496523689228013 c-1.1638089418411255,1.8966965510623766 -1.5038859844207764,4.009872666886395 -0.9948469996452332,5.875643206876589 c0.40953099727630615,1.3647986195485942 1.2124249935150146,2.5564239732948977 2.3107330799102783,3.4738494085970615 c-0.06765999644994736,0.12576189158453843 -0.1353130042552948,0.2556159955731587 -0.20057399570941925,0.38348272874219447 c-1.3898279666900635,-0.3236983057320302 -2.8197720050811768,-0.24328512497746857 -4.156793117523193,0.24948017475386308 c-1.8418090343475342,0.6927052081367293 -3.582253932952881,2.127603691501008 -4.429214954376221,4.15830880918827 c-1.3624067306518555,3.5954807983507067 -0.07603800296783447,7.3206402274262246 2.840847969055176,9.071377842446964 c-0.04191000014543533,0.13382790334892647 -0.0928099974989891,0.26181104534955324 -0.1353130042552948,0.3937679867104862 c-1.461616039276123,-0.1199773687778336 -2.9316747188568115,0.16041783127321452 -4.108176231384277,0.8803152031821071 c-1.674943208694458,0.9751520110165188 -3.0098683834075928,2.6906324825204138 -3.5674643516540527,4.834313904339524 c-0.2873898148536682,1.057412058342436 -0.3376829922199249,2.1276046487366784 -0.20296910405158997,3.119043306756339 c0.18560589849948883,1.0066923280801063 0.6252523064613342,1.9626689941494817 1.1849437952041626,2.771033578174638 c0.7920581102371216,1.144410781199639 1.9052144289016724,2.0183402652252767 3.199965000152588,2.5586926218334725 c-0.0239499993622303,0.16018395167671073 -0.061069998890161514,0.3195488685830341 -0.0868149995803833,0.4822471941862432 c-1.3940796852111816,0.13213159200033786 -2.7163119316101074,0.628999140153482 -3.82306170463562,1.4802472241078704 c-1.5735784769058228,1.2064686090131147 -2.792290687561035,3.086054572469152 -2.8240232467651367,5.296742491208192 c-0.20715999603271484,3.8323612090263737 2.1692535877227783,6.984389181818301 5.487467288970947,7.761620991866494 c0,0.0637371332721095 -0.0059899999760091305,0.12558724094513352 -0.0059899999760091305,0.1917433685832819 c0,0.06353638300388198 0.0059899999760091305,0.1280463943389023 0.0059899999760091305,0.19151251026186245 c-3.318213939666748,0.7772316305665044 -5.694447994232178,3.9317277757070315 -5.487467288970947,7.762650498829885 c0.02993600070476532,2.2096610441737425 1.250444769859314,4.090267540508762 2.8240232467651367,5.2940564879173735 c1.1067497730255127,0.85290320425554 2.4289820194244385,1.3522209018044293 3.82306170463562,1.4819134124464597 c0.0239499993622303,0.16263507326493354 0.06346499919891357,0.32198793498453426 0.0868149995803833,0.4824148001693871 c-1.2947505712509155,0.5403403313350879 -2.407907009124756,1.4140710094774533 -3.199965000152588,2.558478679661164 c-0.5598111748695374,0.8085682359140094 -0.9990385174751282,1.7651672248235286 -1.1849437952041626,2.7710395608975773 c-0.13531260192394257,0.9897824608283798 -0.08442100137472153,2.0616302911782327 0.20296910405158997,3.1190342130174713 c0.5574163198471069,2.1447193045946165 1.8925211429595947,3.8591678760459445 3.5674643516540527,4.834325869785403 c1.176501750946045,0.7201191813618664 2.6465604305267334,1.00029153246183 4.108176231384277,0.8827843327663771 c0.04191000014543533,0.12968247462429972 0.0928099974989891,0.2599370770432827 0.1353130042552948,0.38967978273077364 c-2.916886329650879,1.7523796331586539 -4.203254699707031,5.477960604892473 -2.840847969055176,9.071169165070842 c0.8469610214233398,2.0302935063490395 2.5874059200286865,3.4654030003513867 4.429214954376221,4.160378352707426 c1.337020993232727,0.49293395269098994 2.766964912414551,0.5733531161684908 4.156793117523193,0.24965884877444466 c0.06526000052690506,0.12967243860656907 0.13291700184345245,0.2577087819709334 0.20057399570941925,0.38488193806961846 c-1.0983079671859741,0.9157771353051629 -1.9009640216827393,2.1076012949347387 -2.3107330799102783,3.47177651475306 c-0.5089190006256104,1.8643361223382726 -0.16884200274944305,3.977508050256233 0.9948469996452332,5.875649907526281 c1.2187119722366333,1.847433254872385 2.874675989151001,3.18584280146257 4.936159133911133,3.4967395458716624 c1.4215010404586792,0.2704562295648856 2.8704841136932373,0.11366288141636005 4.2011590003967285,-0.4245193920136856 c0.08861000090837479,0.12168271403806052 0.17542700469493866,0.24329517595200656 0.2658340036869049,0.36489757941301093 c-0.9209039807319641,1.061328588087406 -1.50388503074646,2.3418126932527343 -1.6602139472961426,3.722890780536943 c-0.2029689997434616,1.913609469502802 0.23889200389385223,4.1418295185064835 1.810196042060852,5.72516001609381 c2.6550021171569824,2.849160281876266 6.640678882598877,3.43466855606772 9.563911437988281,1.658169096761526 c0.08861999958753586,0.08622078191500471 0.17722399532794952,0.17070510841049824 0.26823100447654724,0.2576686379000108 c-1.822829008102417,2.8532955399718958 -1.2229629755020142,6.7454459282731705 1.6960779428482056,9.339397129476993 c1.622135043144226,1.5332242357351902 3.903291940689087,1.962471324983568 5.865505218505859,1.7643340708270046 c1.415155053138733,-0.1529390088085094 2.72684907913208,-0.7199184011800241 3.8167169094085693,-1.6185919486646867 c0.12273900210857391,0.08712414316522121 0.24907100200653076,0.17152816656206227 0.37360599637031555,0.2577188329454714 c-0.5514280200004578,1.2990329393662705 -0.7139229774475098,2.7131141194727206 -0.4370709955692291,4.099140636554466 c0.320919007062912,2.0140130813777546 1.6897310018539429,3.630326569838246 3.5843489170074463,4.817423002319515 c1.9432330131530762,1.1402722924336217 4.106081008911133,1.4705511446946389 6.015484809875488,0.9751379516176115 c1.400367021560669,-0.39931564603762126 2.623328924179077,-1.1854303637971384 3.559022903442383,-2.2597371531022645 c0.13291700184345245,0.06614609162041774 0.26164498925209045,0.13464092548275985 0.3951599895954132,0.19810704140572 c-0.33169499039649963,1.356968551420124 -0.24907000362873077,2.75269126756956 0.2574540078639984,4.05729507922797 c0.7096729874610901,1.7997960627772898 2.17979097366333,3.499198684308624 4.258158206939697,4.321377734563953 c3.683677911758423,1.3320056399559803 7.500392913818359,0.07648455843085067 9.295740127563477,-2.7712503920539575 c0.13291899859905243,0.04205647074531704 0.26823100447654724,0.09103870609002485 0.4011490046977997,0.1321918081067217 c-0.12453500181436539,1.4270592616697115 0.16285300254821777,2.8638146027526545 0.9018639922142029,4.009667818452954 c0.9969429969787598,1.633216355926379 2.7564280033111572,2.9378299792504095 4.955197811126709,3.4823058678172742 c1.079329013824463,0.28015230897811705 2.1797919273376465,0.33005797013009897 3.193618059158325,0.19809700538798936 c1.0307120084762573,-0.18121419500075575 2.0107710361480713,-0.6104410925592134 2.8387529850006104,-1.154906750669852 c1.1744060516357422,-0.7747724921295429 2.065732955932617,-1.861043949559246 2.6212329864501953,-3.1270840863867306 c0.16465100646018982,0.025093359129031878 0.3275049924850464,0.062030782166588416 0.4939520061016083,0.08451443454868546 c0.13291700184345245,1.3652192049712255 0.6442319750785828,2.653733201211196 1.5165189504623413,3.7360798129110435 c1.2335610389709473,1.5332342867097282 3.1619460582733154,2.721153941867442 5.4283127784729,2.7557826601667443 c3.924427032470703,0.20040560355899117 7.153976917266846,-2.117277272398894 7.950276851654053,-5.360232582893332 c0.06769999861717224,0 0.1311199963092804,0.006022406153575632 0.19639000296592712,0.006022406153575632 c0.06530000269412994,0 0.13110999763011932,-0.006022406153575632 0.19638000428676605,-0.006022406153575632 c0.7963100075721741,3.2429553104944375 4.025790214538574,5.560638006970635 7.9523701667785645,5.360232582893332 c2.2642099857330322,-0.034428087685533626 4.192649841308594,-1.222548493111475 5.426149845123291,-2.7557826601667443 c0.8723599910736084,-1.082346851008765 1.383489966392517,-2.370860727594277 1.5186799764633179,-3.7360798129110435 c0.1646600067615509,-0.022282902113869518 0.3275099992752075,-0.05952144868416642 0.4921500086784363,-0.08451443454868546 c0.5556300282478333,1.2660402564819435 1.448989987373352,2.352311654084417 2.6190900802612305,3.1270840863867306 c0.8301399946212769,0.5444757090851766 1.8101400136947632,0.973702636557249 2.840909957885742,1.154906750669852 c1.0138299465179443,0.1319007336789184 2.1142799854278564,0.08210546872197355 3.1957099437713623,-0.19809700538798936 c2.198770046234131,-0.5444957512070232 3.956160068511963,-1.8490895118908952 4.950940132141113,-3.4823058678172742 c0.7414100170135498,-1.1458530960458404 1.0286799669265747,-2.5826084371287834 0.9040200114250183,-4.009667818452954 c0.13531999289989471,-0.04085198783196109 0.26822999119758606,-0.09013534483980834 0.40354999899864197,-0.1321918081067217 c1.7932499647140503,2.847724906988674 5.609960079193115,4.10325579270102 9.293649673461914,2.7712503920539575 c2.078360080718994,-0.8221788707736408 3.550570011138916,-2.5215815521322043 4.260250091552734,-4.321377734563953 c0.5047299861907959,-1.3046036920039512 0.5873500108718872,-2.700326408153387 0.25745001435279846,-4.05729507922797 c0.1287200003862381,-0.06353638300388198 0.2616499960422516,-0.1319007336789184 0.3927600085735321,-0.19810704140572 c0.9356899857521057,1.0767861493456223 2.160749912261963,1.860411575744564 3.559030055999756,2.2597371531022645 c1.9093999862670898,0.4953930911279514 4.072249889373779,0.16514440674735553 6.0154900550842285,-0.9751379516176115 c1.894610047340393,-1.1870965521357277 3.263309955596924,-2.8034099209417604 3.5864999294281006,-4.817423002319515 c0.27480998635292053,-1.3860266367362044 0.11196000128984451,-2.8001076971881957 -0.4370799958705902,-4.099140636554466 c0.12274999916553497,-0.08612040678089095 0.24907000362873077,-0.17069505743596025 0.37182000279426575,-0.2577188329454714 c1.089859962463379,0.8970273414406904 2.4014999866485596,1.465632867820716 3.816649913787842,1.6185919486646867 c1.962280035018921,0.198117092380258 4.243430137634277,-0.23112990712727566 5.865570068359375,-1.7643340708270046 c2.919029951095581,-2.593950722585987 3.5189099311828613,-6.486101110887262 1.6960699558258057,-9.339397129476993 c0.09099999815225601,-0.08712414316522121 0.17961999773979187,-0.17152816656206227 0.26822999119758606,-0.2576686379000108 c2.923229932785034,1.7764993396517355 6.908979892730713,1.1934602548717805 9.563980102539062,-1.658169096761526 c1.5714199542999268,-1.5833307368962437 2.010770082473755,-3.8115506662454663 1.8101400136947632,-5.72516001609381 c-0.15388000011444092,-1.3810782069386676 -0.7392500042915344,-2.661562192449537 -1.6580699682235718,-3.7253599699484425 c0.09099999815225601,-0.11921353210496477 0.1754399985074997,-0.24083602255823777 0.26583999395370483,-0.3624384409760495 c1.3285800218582153,0.5381120063491238 2.7774999141693115,0.6949555495431099 4.199009895324707,0.4245093709527623 c2.059380054473877,-0.3108966845818628 3.7195401191711426,-1.6493061713448185 4.936150074005127,-3.4967395458716624 c1.1659599542617798,-1.8981419769245065 1.503890037536621,-4.011303973522388 0.9948499798774719,-5.875649907526281 c-0.40953999757766724,-1.36417533947278 -1.2123600244522095,-2.5576456453190985 -2.3107399940490723,-3.47177651475306 c0.06530000269412994,-0.12722333618733828 0.1329299956560135,-0.2552094994630494 0.20058000087738037,-0.38488193806961846 c1.3919299840927124,0.32369429730766086 2.819770097732544,0.24327508895973793 4.156789779663086,-0.24965884877444466 c1.8418099880218506,-0.6949756514921859 3.5822501182556152,-2.130084846358386 4.429220199584961,-4.160378352707426 c1.3623499870300293,-3.5932083208694507 0.07599999755620956,-7.318779361283191 -2.8430099487304688,-9.071169165070842 c0.0478999987244606,-0.12968247462429972 0.09279999881982803,-0.25999732306328127 0.13710999488830566,-0.38966976166985035 c1.4616800546646118,0.11751722075637616 2.931730031967163,-0.16264510928266418 4.108180046081543,-0.8827943837409151 c1.6749999523162842,-0.9751480025921495 3.0098700523376465,-2.689606565190786 3.5675199031829834,-4.834325869785403 c0.28738999366760254,-1.0574040414936974 0.33768999576568604,-2.129241761041783 0.2029699981212616,-3.1190342130174713 c-0.18559999763965607,-1.0058723360740487 -0.625190019607544,-1.962471324983568 -1.1828500032424927,-2.7710295099230393 c-0.7941499948501587,-1.1460639272022206 -1.9072999954223633,-2.018128476833226 -3.2041499614715576,-2.558488730635702 c0.029999999329447746,-0.1604168291671222 0.06109999865293503,-0.3197797119476462 0.08860000222921371,-0.4824248511439251 c1.3940199613571167,-0.12967243860656907 2.716249942779541,-0.6290001572163817 3.822999954223633,-1.4818933104973837 c1.5757399797439575,-1.203798639419773 2.7923500537872314,-3.084405494718169 2.8240199089050293,-5.2940665388919115 c0.20476999878883362,-3.8309126721483153 -2.169189929962158,-6.985419167399527 -5.487460136413574,-7.762660549804423 " style="fill:#c2955c;fill-opacity:1;fill-rule:nonzero;stroke:none;stroke-width:0.208286" id="path652" inkscape:export-xdpi="96.025337" inkscape:export-ydpi="96.025337"/>
    <path d="m105.54080200195312,17.472179512873026 c-47.851463317871094,0 -86.78529357910156,37.99791408930287 -86.78529357910156,84.70621330507493 c0,46.70787420313445 38.9338264465332,84.7064200679797 86.78529357910156,84.7064200679797 c47.85361862182617,0 86.783203125,-37.998542035902574 86.783203125,-84.7064200679797 c0,-46.70829538682938 -38.92958068847656,-84.70621330507493 -86.783203125,-84.70621330507493 zm0,172.67411909096336 c-49.693275451660156,0 -90.12464141845703,-39.461676757932764 -90.12464141845703,-87.9679134437738 c0,-48.506045238706974 40.431365966796875,-87.96564670970656 90.12464141845703,-87.96564670970656 c49.69334030151367,0 90.12470245361328,39.45960147099959 90.12470245361328,87.96564670970656 c0,48.50623668584103 -40.431358337402344,87.9679134437738 -90.12470245361328,87.9679134437738 " style="fill:#ffffff;fill-opacity:1;fill-rule:nonzero;stroke:none;stroke-width:0.208286" id="path656" inkscape:export-xdpi="96.025337" inkscape:export-ydpi="96.025337"/>
    <path d="m132.60423278808594,102.17839090347661 c0,-14.590158326645223 -12.117600440979004,-26.415463945838837 -27.063430786132812,-26.415463945838837 c-14.945759773254395,0 -27.06121253967285,11.825305619193614 -27.06121253967285,26.415463945838837 H17.086912155151367 c0,20.997902518652154 7.686179161071777,40.238687925158956 20.454364776611328,55.20654177299275 H173.54039001464844 c12.7681303024292,-14.967857676776475 20.45435905456543,-34.20864308328328 20.45435905456543,-55.20654177299275 h-61.39051818847656 " style="fill:#ffffff;fill-opacity:1;fill-rule:nonzero;stroke:none;stroke-width:0.208286" id="path658" inkscape:export-xdpi="96.025337" inkscape:export-ydpi="96.025337"/>
    <path d="m105.81537628173828,82.77246702807497 l3.0204598903656006,9.072820396602083 h9.773050308227539 l-7.9079999923706055,5.608257131242453 l3.020400047302246,9.071167250599501 l-7.905910015106201,-5.608245165796575 l-7.905852794647217,5.608245165796575 l3.018312931060791,-9.071167250599501 l-7.90591287612915,-5.608257131242453 h9.773042678833008 l3.0204100608825684,-9.072820396602083 " style="fill:#000000;fill-opacity:1;fill-rule:nonzero;stroke:none;stroke-width:0.208286" id="path660" inkscape:export-xdpi="96.025337" inkscape:export-ydpi="96.025337"/>
    <path d="m105.10655212402344,56.24056684977404 c-26.315505981445312,0 -47.727176666259766,21.70391934515601 -47.727176666259766,48.38092304977272 c0,26.6791881164163 21.411670684814453,48.38096899708489 47.727176666259766,48.38096899708489 c26.317440032958984,0 47.727210998535156,-21.701780880668593 47.727210998535156,-48.38096899708489 c0,-26.67700179014537 -21.40976905822754,-48.38092304977272 -47.727210998535156,-48.38092304977272 zm0,99.8108561301924 c-27.976232528686523,0 -50.735206604003906,-23.071445368438162 -50.735206604003906,-51.42993308041969 c0,-28.358380501586453 22.758974075317383,-51.43027002737563 50.735206604003906,-51.43027002737563 c27.97624969482422,0 50.73522186279297,23.071889525789175 50.73522186279297,51.43027002737563 c0,28.358485797510184 -22.758970260620117,51.42993308041969 -50.73522186279297,51.42993308041969 " style="fill:#ffffff;fill-opacity:1;fill-rule:nonzero;stroke:none;stroke-width:0.192058" id="path654" inkscape:export-xdpi="96.025337" inkscape:export-ydpi="96.025337"/>
    <text xml:space="preserve" style="font-size:18.7226px;line-height:1.25;font-family:Uroob;-inkscape-font-specification:'Uroob, Normal';stroke-width:0.195027" x="35.435055" y="144.203892666626" id="text2328" transform="matrix(1.00216, 0, 0, 1.00157, 0, 0.829275)" inkscape:export-xdpi="96.025337" inkscape:export-ydpi="96.025337"><tspan sodipodi:role="line" id="tspan2326" x="35.435055" y="144.203892666626" style="font-style:normal;font-variant:normal;font-weight:normal;font-stretch:normal;font-size:37.4453px;font-family:Anton;-inkscape-font-specification:'Anton, Normal';font-variant-ligatures:normal;font-variant-caps:normal;font-variant-numeric:normal;font-variant-east-asian:normal;stroke-width:0.195027">Time MGR</tspan></text>
    <text xml:space="preserve" id="text804" style="font-size:25.4px;line-height:1.25;font-family:Uroob;-inkscape-font-specification:'Uroob, Normal';white-space:pre;shape-inside:url(#rect806);" inkscape:export-xdpi="96.025337" inkscape:export-ydpi="96.025337" transform="matrix(1.00266, 0, 0, 1.01643, -0.555805, -0.0390268)" y="-1.6458432078361511" x="0"/>
    <text xml:space="preserve" id="text810" style="font-size:25.4px;line-height:1.25;font-family:Uroob;-inkscape-font-specification:'Uroob, Normal';white-space:pre;shape-inside:url(#rect812);" inkscape:export-xdpi="96.025337" inkscape:export-ydpi="96.025337" transform="matrix(1.00266, 0, 0, 1.01643, -0.555805, -0.0390268)" y="-1.6458432078361511" x="0"/>
    <text xml:space="preserve" style="font-style:normal;font-variant:normal;font-weight:normal;font-stretch:normal;font-size:13.6148px;line-height:1.25;font-family:'Special Elite';-inkscape-font-specification:'Special Elite, Normal';font-variant-ligatures:normal;font-variant-caps:normal;font-variant-numeric:normal;font-variant-east-asian:normal;fill:#c2955c;fill-opacity:1;stroke-width:0.184399" x="83.16494" y="172.12326535430907" id="text822" transform="matrix(0.991258, 0, 0, 1.01259, 0, 0.829275)" inkscape:export-xdpi="96.025337" inkscape:export-ydpi="96.025337"><tspan sodipodi:role="line" id="tspan820" x="83.16494" y="172.12326535430907" style="font-style:normal;font-variant:normal;font-weight:normal;font-stretch:normal;font-size:13.6148px;font-family:'Passion One';-inkscape-font-specification:'Passion One, Normal';font-variant-ligatures:normal;font-variant-caps:normal;font-variant-numeric:normal;font-variant-east-asian:normal;fill:#c2955c;fill-opacity:1;stroke-width:0.184399">© 2021</tspan></text>
    <path d="m80.60568237304688,83.90431014250498 c11.904226303100586,-15.174415733124533 33.26265335083008,-18.110741895136925 47.60979461669922,-6.544134002016108 c14.348270416259766,11.567547898549037 16.333770751953125,33.32368636399042 4.42956018447876,48.49810401158629 c-11.90509033203125,15.17555005739382 -33.26152801513672,18.11169338739319 -47.60980987548828,6.544147403315492 c-14.34712028503418,-11.566603106942466 -16.334638595581055,-33.32257597061289 -4.42954683303833,-48.498115498414336 zM134.28480529785156,127.18026090216517 c12.65548038482666,-16.13204769897675 10.542810440063477,-39.25895721662255 -4.7086100578308105,-51.55461111200293 c-15.25137996673584,-12.295617520424912 -37.954986572265625,-9.175512639310227 -50.61046600341797,6.9565326665773455 c-12.65548038482666,16.132063014747473 -10.542597770690918,39.25916780847001 4.7087931632995605,51.55477192759554 c15.25141429901123,12.295655809851723 37.954803466796875,9.175366182252674 50.61028289794922,-6.956692046316448 " style="fill:none;fill-opacity:1;fill-rule:nonzero;stroke:none;stroke-width:0.136651;stroke-opacity:1" id="path654-5" inkscape:export-xdpi="96.025337" inkscape:export-ydpi="96.025337"/>
    <text xml:space="preserve" style="font-style:normal;font-variant:normal;font-weight:normal;font-stretch:normal;font-size:11.2889px;line-height:1.25;font-family:'Special Elite';-inkscape-font-specification:'Special Elite, Normal';font-variant-ligatures:normal;font-variant-caps:normal;font-variant-numeric:normal;font-variant-east-asian:normal;fill:#c2955c;fill-opacity:1;stroke-width:0.264583" id="text1649-4" transform="matrix(0.999934, -0.0115581, 0.0115151, 1.00367, -3.6845, 1.04229)" inkscape:export-xdpi="96.025337" inkscape:export-ydpi="96.025337" y="-1.6666666865348816" x="0"><textPath xlink:href="#path654-5" id="textPath851"><tspan id="tspan1647-0" style="font-style:normal;font-variant:normal;font-weight:normal;font-stretch:normal;font-size:11.2889px;font-family:'Special Elite';-inkscape-font-specification:'Special Elite, Normal';font-variant-ligatures:normal;font-variant-caps:normal;font-variant-numeric:normal;font-variant-east-asian:normal;fill:#c2955c;fill-opacity:1;stroke-width:0.264583">RoR 3/6ths</tspan></textPath></text>
    <ellipse style="fill:none;fill-opacity:1;stroke:none;stroke-width:0.271232;stroke-opacity:1" id="path2669" cx="-151.68515864014626" cy="-41.2631858587265" rx="76.75418090820312" ry="89.48143768310547" transform="matrix(-0.802241, -0.59923, 0.361006, -0.936046, 0, -0.00405872)"/>
    <text xml:space="preserve" style="font-style:normal;font-variant:normal;font-weight:normal;font-stretch:normal;font-size:16.9333px;line-height:1.25;font-family:Anton;-inkscape-font-specification:'Anton, Normal';font-variant-ligatures:normal;font-variant-caps:normal;font-variant-numeric:normal;font-variant-east-asian:normal;fill:#c2955c;fill-opacity:1;stroke:#000000;stroke-width:0.264583;stroke-opacity:1" id="text2673" transform="matrix(0.998342, -0.0585368, 0.0554285, 0.952405, -5.39445, 16.5126)" y="-1.7505170702934265" x="0.09718964621424675"><textPath xlink:href="#path2669" id="textPath2675"><tspan id="tspan2671" style="font-style:normal;font-variant:normal;font-weight:normal;font-stretch:normal;font-size:16.9333px;font-family:Anton;-inkscape-font-specification:'Anton, Normal';font-variant-ligatures:normal;font-variant-caps:normal;font-variant-numeric:normal;font-variant-east-asian:normal;fill:#c2955c;fill-opacity:1;stroke:#000000;stroke-width:0.264583;stroke-opacity:1">record effort without any</tspan></textPath></text>
  </g></g></svg>