<?xml version="1.0" encoding="UTF-8" standalone="no"?>
<svg
   xmlns:dc="http://purl.org/dc/elements/1.1/"
   xmlns:cc="http://creativecommons.org/ns#"
   xmlns:rdf="http://www.w3.org/1999/02/22-rdf-syntax-ns#"
   xmlns:svg="http://www.w3.org/2000/svg"
   xmlns="http://www.w3.org/2000/svg"
   xmlns:xlink="http://www.w3.org/1999/xlink"
   width="210mm"
   height="297mm"
   viewBox="0 0 210 297"
   version="1.1"
   id="svg1148">
  <defs
     id="defs1142">
    <rect
       x="469.2783"
       y="93.259304"
       width="214.23877"
       height="138.79842"
       id="rect812" />
    <rect
       x="279.51828"
       y="8.2495887"
       width="227.49008"
       height="37.572504"
       id="rect806" />
  </defs>
  <metadata
     id="metadata1145">
    <rdf:RDF>
      <cc:Work
         rdf:about="">
        <dc:format>image/svg+xml</dc:format>
        <dc:type
           rdf:resource="http://purl.org/dc/dcmitype/StillImage" />
        <dc:title></dc:title>
      </cc:Work>
    </rdf:RDF>
  </metadata>
  <g
     id="layer2">
    <ellipse
       style="fill:#000000;stroke-width:1.5354"
       id="path1164"
       cx="105.81538"
       cy="102.21172"
       rx="94.951935"
       ry="90.759544" />
    <ellipse
       style="fill:none;fill-opacity:1;stroke:none;stroke-width:1.04896;stroke-opacity:1"
       id="ellipse2234"
       cx="-121.73141"
       cy="-90.218521"
       rx="62.655201"
       ry="64.196632"
       transform="matrix(-0.9874666,-0.15782813,0.14410591,-0.98956227,0,0)" />
  </g>
  <g
     id="layer1">
    <path
       d="m 200.25554,102.21061 c 0,50.13769 -42.36545,90.93263 -94.44019,90.93263 -52.074669,0 -94.440182,-40.79494 -94.440182,-90.93263 0,-50.13953 42.365513,-90.930624 94.440182,-90.930624 52.07474,0 94.44019,40.791094 94.44019,90.930624 z m 3.36847,0.18841 c 0,-0.0625 0.005,-0.12597 0.005,-0.18841 0,-0.0651 -0.005,-0.12598 -0.005,-0.18865 3.30942,-0.76466 5.67721,-3.865727 5.47287,-7.636127 -0.0299,-2.174946 -1.24498,-4.024142 -2.81648,-5.211105 -1.10388,-0.837484 -2.4226,-1.326301 -3.81293,-1.456315 -0.0299,-0.160009 -0.0609,-0.316798 -0.0884,-0.474449 1.29347,-0.531599 2.40362,-1.391415 3.19573,-2.517324 0.55593,-0.795294 0.9943,-1.735816 1.17965,-2.726231 0.13495,-0.97541 0.0842,-2.028299 -0.20243,-3.068615 -0.55594,-2.109022 -1.88751,-3.796767 -3.55801,-4.756152 -1.17338,-0.708282 -2.63954,-0.985552 -4.09729,-0.866083 -0.0418,-0.129824 -0.0908,-0.255795 -0.13674,-0.385792 2.9113,-1.724052 4.1942,-5.388983 2.83547,-8.926332 -0.84478,-1.997873 -2.58061,-3.409572 -4.41754,-4.091078 -1.33347,-0.484741 -2.75748,-0.563854 -4.14577,-0.245446 -0.0675,-0.125742 -0.13496,-0.253554 -0.20004,-0.377283 1.09545,-0.902592 1.89592,-2.074951 2.3046,-3.417684 0.50757,-1.835605 0.17079,-3.914615 -0.99215,-5.780646 -1.21339,-1.817355 -2.8692,-3.133722 -4.92313,-3.439992 -1.41767,-0.267755 -2.86281,-0.111541 -4.18787,0.417816 -0.0884,-0.117635 -0.17496,-0.239352 -0.26513,-0.358999 0.91637,-1.04453 1.4999,-2.302079 1.65366,-3.663062 0.20004,-1.882261 -0.23826,-4.074853 -1.80534,-5.634613 -2.64796,-2.801079 -6.62307,-3.379146 -9.53855,-1.626696 -0.0884,-0.08521 -0.17676,-0.170358 -0.26752,-0.255566 1.81799,-2.809191 1.21972,-6.636591 -1.69159,-9.188188 -1.61783,-1.509055 -3.89294,-1.930942 -5.84995,-1.736224 -1.4114,0.15012 -2.71962,0.709903 -3.8066,1.592217 -0.12182,-0.08722 -0.24841,-0.168346 -0.37082,-0.255566 0.54758,-1.275804 0.70994,-2.667213 0.43591,-4.030231 -0.32246,-1.981648 -1.6874,-3.571835 -3.577,-4.740128 -1.93808,-1.121649 -4.09519,-1.446179 -5.99954,-0.959386 -1.39456,0.395508 -2.61637,1.16424 -3.54958,2.220982 -0.13078,-0.0629 -0.26095,-0.129823 -0.39173,-0.194735 0.32843,-1.334616 0.24662,-2.707776 -0.25677,-3.989657 -0.70779,-1.770704 -2.1761,-3.442022 -4.24896,-4.253341 -3.67176,-1.308254 -7.48045,-0.073019 -9.26895,2.72806 -0.13495,-0.04255 -0.26752,-0.08722 -0.40247,-0.129824 0.1242,-1.403581 -0.16242,-2.8173037 -0.90163,-3.9450405 -0.99221,-1.6064119 -2.74488,-2.8903226 -4.93782,-3.4257913 -1.07861,-0.2737915 -2.1761,-0.3245021 -3.1873,-0.192666 -1.02798,0.1764524 -2.00544,0.5983454 -2.83332,1.1338141 -1.16705,0.7626432 -2.05816,1.8295273 -2.61004,3.0769286 -0.1666,-0.026448 -0.32843,-0.06083 -0.49324,-0.085208 -0.13495,-1.3386747 -0.64461,-2.6063603 -1.51465,-3.6732443 -1.23023,-1.5090556 -3.15356,-2.6773552 -5.41183,-2.711835 -3.91612,-0.1947357 -7.1371,2.0850871 -7.93129,5.2715437 -0.0651,0 -0.13078,-0.00406 -0.19587,-0.00406 -0.0651,0 -0.13077,0.00406 -0.19825,0.00406 -0.79414,-3.1864566 -4.01303,-5.4662622 -7.92705,-5.2715437 -2.26036,0.034497 -4.183633,1.2027794 -5.413923,2.711835 -0.869976,1.066884 -1.379815,2.3345696 -1.5125,3.6732443 -0.166602,0.024148 -0.328428,0.058817 -0.49503,0.085208 C 89.717138,7.9880086 88.827995,6.9211245 87.656702,6.1584813 86.830975,5.6230298 85.853514,5.2011253 84.825475,5.0246672 83.814336,4.8928311 82.71679,4.9435417 81.640323,5.2173332 79.447381,5.7527847 77.692621,7.0367126 76.698261,8.6431245 75.96097,9.7708613 75.674462,11.184584 75.798787,12.588165 c -0.134954,0.04255 -0.267519,0.08722 -0.400085,0.129824 -1.790588,-2.8010787 -5.599335,-4.036314 -9.271098,-2.72806 -2.072857,0.811319 -3.539019,2.482637 -4.24687,4.253341 -0.505779,1.281881 -0.587587,2.655041 -0.256771,3.989662 -0.132565,0.06491 -0.260951,0.131837 -0.394113,0.194736 -0.933153,-1.056748 -2.152874,-1.825474 -3.549528,-2.220988 -1.904344,-0.486811 -4.061458,-0.162251 -5.99954,0.959386 -1.889594,1.168293 -3.254659,2.75848 -3.574847,4.740128 -0.275879,1.363018 -0.113456,2.754427 0.435914,4.030231 -0.124206,0.08722 -0.252591,0.168346 -0.372617,0.255566 -1.086978,-0.882314 -2.395195,-1.44212 -3.806599,-1.592217 -1.957011,-0.194736 -4.23212,0.227163 -5.849956,1.736224 -2.911303,2.551597 -3.509579,6.378997 -1.691582,9.186158 -0.09076,0.08722 -0.179142,0.172428 -0.267519,0.257578 -2.915483,-1.752449 -6.890594,-1.174382 -9.538558,1.626697 -1.567317,1.55976 -2.00759,3.752351 -1.805397,5.634613 0.155853,1.360983 0.73735,2.618532 1.653723,3.663102 -0.08838,0.119647 -0.174962,0.241364 -0.263339,0.358999 -1.327147,-0.529414 -2.772289,-0.685565 -4.190022,-0.417816 -2.056018,0.306276 -3.707592,1.622637 -4.923073,3.439992 -1.160724,1.866031 -1.4999,3.945041 -0.99221,5.780646 0.408445,1.342733 1.209211,2.515092 2.304607,3.417684 -0.06748,0.123729 -0.134954,0.251483 -0.200042,0.377283 -1.386144,-0.318465 -2.812297,-0.239352 -4.145774,0.245446 -1.836926,0.681506 -3.572757,2.093205 -4.417473,4.091078 -1.3587951,3.537349 -0.075837,7.20228 2.833317,8.924711 -0.0418,0.131664 -0.09256,0.257578 -0.134954,0.387402 -1.457742,-0.118038 -2.9239032,0.157824 -4.0972861,0.866082 -1.6705031,0.959386 -3.0018896,2.64713 -3.5580074,4.756153 -0.2866279,1.040315 -0.3367878,2.093205 -0.202431,3.068614 0.1851139,0.990416 0.6235948,1.930937 1.1818026,2.726232 0.7899584,1.125908 1.9001638,1.985707 3.1914821,2.517323 -0.023886,0.157594 -0.060908,0.314383 -0.086585,0.47445 -1.3903841,0.129996 -2.7091112,0.61883 -3.8129271,1.456315 -1.5694071,1.186962 -2.7848885,3.036159 -2.816537,5.211105 -0.2066109,3.770399 2.1635031,6.871465 5.4729206,7.636135 0,0.0627 -0.00597,0.12355 -0.00597,0.18864 0,0.0625 0.00597,0.12597 0.00597,0.18841 -3.3094175,0.76467 -5.6793524,3.86816 -5.4729206,7.63715 0.029857,2.17393 1.2471299,4.02414 2.816537,5.20846 1.1038159,0.83911 2.422543,1.33036 3.8129271,1.45795 0.023886,0.16001 0.063297,0.31679 0.086585,0.47462 -1.2913183,0.5316 -2.4015237,1.39121 -3.1914821,2.51711 -0.5583272,0.7955 -0.9963901,1.73663 -1.1818026,2.72624 -0.1349539,0.97378 -0.084197,2.0283 0.202431,3.06861 0.5559387,2.11004 1.8875043,3.79677 3.5580074,4.75616 1.1733829,0.70848 2.6395441,0.98412 4.0972861,0.86851 0.0418,0.12759 0.09256,0.25574 0.134954,0.38338 -2.9091538,1.72405 -4.1921121,5.38939 -2.833317,8.92451 0.844716,1.99747 2.580547,3.40937 4.417473,4.09311 1.333477,0.48497 2.75963,0.56408 4.145774,0.24562 0.06509,0.12758 0.132565,0.25355 0.200042,0.37866 -1.095396,0.90097 -1.895924,2.07353 -2.304607,3.41565 -0.50757,1.83419 -0.168394,3.9132 0.99221,5.78065 1.215481,1.81756 2.867055,3.13433 4.923073,3.4402 1.417733,0.26609 2.862875,0.11183 4.190022,-0.41765 0.08838,0.11971 0.174962,0.23936 0.26513,0.359 -0.918463,1.04417 -1.499899,2.30395 -1.655813,3.6627 -0.202431,1.88267 0.238259,4.07486 1.805397,5.63259 2.647964,2.8031 6.623075,3.37914 9.538558,1.63136 0.08838,0.0848 0.176754,0.16795 0.26752,0.2535 -1.817997,2.80717 -1.219721,6.63639 1.691582,9.1884 1.617835,1.50844 3.892944,1.93074 5.849956,1.73581 1.411403,-0.15047 2.71962,-0.70828 3.806599,-1.59242 0.122414,0.0857 0.248411,0.16875 0.372616,0.25355 -0.549967,1.27803 -0.712031,2.66925 -0.435913,4.03287 0.320068,1.98145 1.685252,3.57163 3.574847,4.73953 1.938082,1.12184 4.095196,1.44678 5.999539,0.95937 1.396654,-0.39286 2.616375,-1.16626 3.549588,-2.2232 0.132565,0.0651 0.260951,0.13246 0.394113,0.1949 -0.330816,1.33503 -0.24841,2.70819 0.256771,3.9917 0.707792,1.7707 2.174013,3.44262 4.24687,4.25151 3.673913,1.31047 7.48051,0.0753 9.271098,-2.72644 0.132566,0.0414 0.26752,0.0896 0.400085,0.13005 -0.124205,1.40399 0.162422,2.81751 0.899474,3.94484 0.9943,1.60681 2.74912,2.89033 4.942062,3.426 1.076467,0.27563 2.174013,0.32473 3.185152,0.1949 1.027979,-0.17829 2.00544,-0.60057 2.831227,-1.13624 1.171293,-0.76224 2.060257,-1.83095 2.614285,-3.07652 0.164214,0.0247 0.326636,0.061 0.492642,0.0832 0.132565,1.34314 0.642524,2.61082 1.512499,3.67567 1.230291,1.50845 3.153564,2.67716 5.413923,2.71123 3.914028,0.19716 7.135008,-2.08305 7.929198,-5.27357 0.0675,0 0.13078,0.006 0.19587,0.006 0.0651,0 0.13077,-0.006 0.19586,-0.006 0.7942,3.19052 4.01512,5.47073 7.93129,5.27357 2.25821,-0.0339 4.18154,-1.20278 5.41177,-2.71123 0.87004,-1.06485 1.37982,-2.33253 1.51465,-3.67567 0.16422,-0.0219 0.32664,-0.0586 0.49085,-0.0832 0.55415,1.24557 1.44515,2.31428 2.61214,3.07652 0.82794,0.53568 1.80534,0.95796 2.83338,1.13624 1.01114,0.12977 2.10868,0.0808 3.18724,-0.1949 2.19294,-0.53569 3.94567,-1.81919 4.93782,-3.426 0.73944,-1.12733 1.02595,-2.54085 0.90162,-3.94484 0.13496,-0.0402 0.26752,-0.0887 0.40248,-0.13005 1.7885,2.80168 5.59509,4.03691 9.26901,2.72644 2.07285,-0.80889 3.54116,-2.48081 4.24896,-4.25151 0.50339,-1.28351 0.58579,-2.65667 0.25677,-3.9917 0.12838,-0.0625 0.26095,-0.12976 0.39172,-0.1949 0.93321,1.05938 2.15502,1.83033 3.54959,2.2232 1.90434,0.48739 4.06146,0.16248 5.99954,-0.95937 1.88959,-1.1679 3.25466,-2.75808 3.577,-4.73953 0.27408,-1.36362 0.11166,-2.75484 -0.43592,-4.03287 0.12242,-0.0847 0.24841,-0.16794 0.37083,-0.25355 1.08697,0.88252 2.39513,1.44193 3.80653,1.59242 1.95708,0.19491 4.23218,-0.22739 5.85002,-1.73581 2.9113,-2.55201 3.50958,-6.38123 1.69158,-9.1884 0.0908,-0.0857 0.17914,-0.16875 0.26752,-0.2535 2.91548,1.74778 6.89066,1.17417 9.53862,-1.63136 1.56726,-1.55773 2.00544,-3.74992 1.80534,-5.63259 -0.15347,-1.35875 -0.73729,-2.61853 -1.65367,-3.66513 0.0908,-0.11729 0.17497,-0.23694 0.26513,-0.35658 1.32506,0.52941 2.77014,0.68372 4.18788,0.41764 2.05392,-0.30587 3.70968,-1.62264 4.92307,-3.4402 1.16287,-1.86745 1.4999,-3.94645 0.99221,-5.78065 -0.40845,-1.34212 -1.20915,-2.5163 -2.30461,-3.41565 0.0651,-0.12516 0.13257,-0.25108 0.20004,-0.37866 1.38824,0.31846 2.8123,0.23935 4.14578,-0.24562 1.83692,-0.68374 3.57275,-2.09564 4.41747,-4.09311 1.35874,-3.53512 0.0758,-7.20045 -2.83547,-8.92451 0.0478,-0.12758 0.0926,-0.25579 0.13675,-0.38337 1.4578,0.11562 2.92396,-0.16001 4.09729,-0.86852 1.67056,-0.95938 3.00189,-2.64612 3.55806,-4.75616 0.28663,-1.04031 0.33679,-2.09482 0.20243,-3.06861 -0.18511,-0.98961 -0.62353,-1.93074 -1.17971,-2.72623 -0.79205,-1.12753 -1.90225,-1.9855 -3.19566,-2.51712 0.0299,-0.15782 0.0609,-0.31461 0.0884,-0.47462 1.39032,-0.12758 2.70905,-0.61884 3.81286,-1.45794 1.57156,-1.18433 2.78495,-3.03454 2.81654,-5.20847 0.20422,-3.76898 -2.16344,-6.87248 -5.47292,-7.63715"
       style="fill:#c2955c;fill-opacity:1;fill-rule:nonzero;stroke:none;stroke-width:0.206706"
       id="path652" />
    <path
       d="m 105.81535,18.873928 c -47.724613,0 -86.555229,37.383563 -86.555229,83.336682 0,45.9527 38.830616,83.33688 86.555229,83.33688 47.72677,0 86.55315,-37.38418 86.55315,-83.33688 0,-45.953119 -38.82638,-83.336682 -86.55315,-83.336682 z m 0,169.882322 c -49.561539,0 -89.885725,-38.82365 -89.885725,-86.54564 0,-47.7218 40.324186,-86.543418 89.885725,-86.543418 49.56161,0 89.88579,38.821618 89.88579,86.543418 0,47.72199 -40.32418,86.54564 -89.88579,86.54564"
       style="fill:#ffffff;fill-opacity:1;fill-rule:nonzero;stroke:none;stroke-width:0.206706"
       id="path656" />
    <path
       d="m 132.80704,102.21061 c 0,-14.354266 -12.08548,-25.98838 -26.99169,-25.98838 -14.906138,0 -26.989474,11.634114 -26.989474,25.98838 H 17.595948 c 0,20.65841 7.665803,39.58811 20.400142,54.31396 h 135.63859 c 12.73428,-14.72585 20.40014,-33.65555 20.40014,-54.31396 h -61.22778"
       style="fill:#ffffff;fill-opacity:1;fill-rule:nonzero;stroke:none;stroke-width:0.206706"
       id="path658" />
    <path
       d="m 106.0892,83.11844 3.01246,8.926131 h 9.74714 l -7.88704,5.517583 3.0124,8.924506 -7.88496,-5.51757 -7.884891,5.51757 3.010311,-8.924506 -7.884955,-5.517583 h 9.747135 l 3.0124,-8.926131"
       style="fill:#000000;fill-opacity:1;fill-rule:nonzero;stroke:none;stroke-width:0.206706"
       id="path660" />
    <path
       d="m 105.38225,57.015509 c -26.245743,0 -47.600652,21.35301 -47.600652,47.598701 0,26.24784 21.354909,47.59874 47.600652,47.59874 26.24768,0 47.60069,-21.3509 47.60069,-47.59874 0,-26.245691 -21.35301,-47.598701 -47.60069,-47.598701 z m 0,98.197111 c -27.902066,0 -50.600708,-22.69843 -50.600708,-50.59841 0,-27.899884 22.698642,-50.598746 50.600708,-50.598746 27.90209,0 50.60073,22.698862 50.60073,50.598746 0,27.89998 -22.69864,50.59841 -50.60073,50.59841"
       style="fill:#ffffff;fill-opacity:1;fill-rule:nonzero;stroke:none;stroke-width:0.190601"
       id="path654" />
    <text
       xml:space="preserve"
       style="font-size:18.5806px;line-height:1.25;font-family:Uroob;-inkscape-font-specification:'Uroob, Normal';stroke-width:0.193548"
       x="35.71669"
       y="145.63121"
       id="text2328"
       transform="scale(1.0071451,0.99290561)"><tspan
         id="tspan2326"
         x="35.71669"
         y="145.63121"
         style="font-style:normal;font-variant:normal;font-weight:normal;font-stretch:normal;font-size:37.1613px;font-family:Anton;-inkscape-font-specification:'Anton, Normal';font-variant-ligatures:normal;font-variant-caps:normal;font-variant-numeric:normal;font-variant-east-asian:normal;stroke-width:0.193548">Time MGR</tspan></text>
    <text
       xml:space="preserve"
       id="text804"
       style="line-height:1.25;font-family:Uroob;font-size:25.4px;-inkscape-font-specification:'Uroob, Normal';white-space:pre;shape-inside:url(#rect806);" />
    <text
       xml:space="preserve"
       id="text810"
       style="line-height:1.25;font-family:Uroob;font-size:25.4px;-inkscape-font-specification:'Uroob, Normal';white-space:pre;shape-inside:url(#rect812);" />
    <text
       xml:space="preserve"
       style="font-style:normal;font-variant:normal;font-weight:normal;font-stretch:normal;font-size:13.5115px;line-height:1.25;font-family:'Special Elite';-inkscape-font-specification:'Special Elite, Normal';font-variant-ligatures:normal;font-variant-caps:normal;font-variant-numeric:normal;font-variant-east-asian:normal;fill:#c2955c;fill-opacity:1;stroke-width:0.183;"
       x="83.090614"
       y="173.31139"
       id="text822"
       transform="scale(0.99618589,1.0038287)"><tspan
         id="tspan820"
         x="83.090614"
         y="173.31139"
         style="font-style:normal;font-variant:normal;font-weight:normal;font-stretch:normal;font-size:13.5115px;font-family:'Passion One';-inkscape-font-specification:'Passion One, Normal';font-variant-ligatures:normal;font-variant-caps:normal;font-variant-numeric:normal;font-variant-east-asian:normal;fill:#c2955c;fill-opacity:1;stroke-width:0.183">© 2021</tspan></text>
    <path
       d="m 80.946338,84.231985 c 11.872668,-14.929076 33.174482,-17.817928 47.483582,-6.438328 14.31024,11.380523 16.29047,32.784913 4.41782,47.713983 -11.87353,14.93019 -33.173353,17.81887 -47.483598,6.43834 C 71.055055,120.56639 69.072806,99.162166 80.946338,84.231985 Z m 53.536812,42.576265 c 12.62193,-15.87123 10.51487,-38.624222 -4.69612,-50.72108 -15.21095,-12.096821 -37.854376,-9.027163 -50.476307,6.84406 -12.621931,15.87124 -10.51465,38.62442 4.69631,50.72123 15.210984,12.09686 37.854187,9.02702 50.476117,-6.84421"
       style="fill:none;fill-opacity:1;fill-rule:nonzero;stroke:none;stroke-width:0.135615;stroke-opacity:1"
       id="path654-5" />
    <text
       xml:space="preserve"
       style="font-style:normal;font-variant:normal;font-weight:normal;font-stretch:normal;font-size:11.2889px;line-height:1.25;font-family:'Special Elite';-inkscape-font-specification:'Special Elite, Normal';font-variant-ligatures:normal;font-variant-caps:normal;font-variant-numeric:normal;font-variant-east-asian:normal;fill:#c2955c;fill-opacity:1;stroke-width:0.264583"
       id="text1649-4"
       transform="rotate(-0.65978018,88.684151,322.14892)"><textPath
         xlink:href="#path654-5"
         id="textPath851"><tspan
           id="tspan1647-0"
           style="font-style:normal;font-variant:normal;font-weight:normal;font-stretch:normal;font-size:11.2889px;font-family:'Special Elite';-inkscape-font-specification:'Special Elite, Normal';font-variant-ligatures:normal;font-variant-caps:normal;font-variant-numeric:normal;font-variant-east-asian:normal;fill:#c2955c;fill-opacity:1;stroke-width:0.264583">RoR 3/6ths</tspan></textPath></text>
    <ellipse
       style="fill:none;fill-opacity:1;stroke:none;stroke-width:0.268878;stroke-opacity:1"
       id="path2669"
       cx="-151.92067"
       cy="-41.86095"
       rx="76.282303"
       ry="88.478737"
       transform="matrix(-0.8050634,-0.59318878,0.36412967,-0.93134826,0,0)" />
    <text
       xml:space="preserve"
       style="font-style:normal;font-variant:normal;font-weight:normal;font-stretch:normal;font-size:16.9333px;line-height:1.25;font-family:Anton;-inkscape-font-specification:'Anton, Normal';font-variant-ligatures:normal;font-variant-caps:normal;font-variant-numeric:normal;font-variant-east-asian:normal;fill:#c2955c;fill-opacity:1;stroke:#000000;stroke-width:0.264583;stroke-opacity:1"
       id="text2673"
       transform="matrix(0.99834248,-0.05831897,0.05542851,0.94886179,-5.3944542,16.455191)"><textPath
         xlink:href="#path2669"
         id="textPath2675"><tspan
           id="tspan2671"
           style="font-style:normal;font-variant:normal;font-weight:normal;font-stretch:normal;font-size:16.9333px;font-family:Anton;-inkscape-font-specification:'Anton, Normal';font-variant-ligatures:normal;font-variant-caps:normal;font-variant-numeric:normal;font-variant-east-asian:normal;fill:#c2955c;fill-opacity:1;stroke:#000000;stroke-width:0.264583;stroke-opacity:1">record effort without any</tspan></textPath></text>
  </g>
</svg>
